<mxfile host="app.diagrams.net" modified="2024-02-24T16:59:42.097Z" agent="Mozilla/5.0 (Windows NT 10.0; Win64; x64) AppleWebKit/537.36 (KHTML, like Gecko) Chrome/122.0.0.0 Safari/537.36" etag="bgG7kdeux4v-fMddsueZ" version="23.1.6" type="device">
  <diagram name="Page-1" id="55a83fd1-7818-8e21-69c5-c3457e3827bb">
    <mxGraphModel dx="2534" dy="1588" grid="1" gridSize="10" guides="1" tooltips="1" connect="1" arrows="1" fold="1" page="1" pageScale="1" pageWidth="1100" pageHeight="850" background="none" math="0" shadow="0">
      <root>
        <mxCell id="0" />
        <mxCell id="1" parent="0" />
        <mxCell id="8QE09penSNkmXtspy4yx-75" value="" style="rounded=1;whiteSpace=wrap;html=1;" parent="1" vertex="1">
          <mxGeometry x="-100" y="-120" width="1300" height="1000" as="geometry" />
        </mxCell>
        <mxCell id="8QE09penSNkmXtspy4yx-8" value="" style="rounded=1;whiteSpace=wrap;html=1;fillColor=#dae8fc;strokeColor=#6c8ebf;strokeWidth=3;" parent="1" vertex="1">
          <mxGeometry x="240" y="30" width="600" height="310" as="geometry" />
        </mxCell>
        <mxCell id="8QE09penSNkmXtspy4yx-5" value="" style="image;html=1;image=img/lib/clip_art/people/Suit_Man_128x128.png" parent="1" vertex="1">
          <mxGeometry x="-30" y="160" width="80" height="80" as="geometry" />
        </mxCell>
        <mxCell id="8QE09penSNkmXtspy4yx-2" value="" style="image;html=1;image=img/lib/clip_art/computers/Server_Rack_128x128.png" parent="1" vertex="1">
          <mxGeometry x="310" y="140" width="150" height="150" as="geometry" />
        </mxCell>
        <mxCell id="8QE09penSNkmXtspy4yx-4" value="" style="image;html=1;image=img/lib/clip_art/computers/Monitor_Tower_128x128.png" parent="1" vertex="1">
          <mxGeometry x="20" y="180" width="140" height="140" as="geometry" />
        </mxCell>
        <mxCell id="8QE09penSNkmXtspy4yx-9" value="" style="image;html=1;image=img/lib/clip_art/computers/Server_Rack_128x128.png" parent="1" vertex="1">
          <mxGeometry x="620" y="140" width="150" height="150" as="geometry" />
        </mxCell>
        <mxCell id="8QE09penSNkmXtspy4yx-10" value="&lt;h1&gt;&lt;font face=&quot;Verdana&quot;&gt;Key Distribution Center (KDC)&lt;/font&gt;&lt;/h1&gt;&lt;p&gt;&lt;br&gt;&lt;/p&gt;" style="text;html=1;spacing=5;spacingTop=-20;whiteSpace=wrap;overflow=hidden;rounded=0;" parent="1" vertex="1">
          <mxGeometry x="335" y="40" width="430" height="50" as="geometry" />
        </mxCell>
        <mxCell id="8QE09penSNkmXtspy4yx-12" value="&lt;h1 style=&quot;font-size: 18px;&quot;&gt;&lt;font face=&quot;Verdana&quot;&gt;&lt;span style=&quot;&quot;&gt;Authentication Server&lt;/span&gt;&lt;/font&gt;&lt;/h1&gt;" style="text;html=1;spacing=5;spacingTop=-20;whiteSpace=wrap;overflow=hidden;rounded=0;fontStyle=1" parent="1" vertex="1">
          <mxGeometry x="270" y="100" width="230" height="30" as="geometry" />
        </mxCell>
        <mxCell id="8QE09penSNkmXtspy4yx-13" value="&lt;h1 style=&quot;font-size: 18px;&quot;&gt;&lt;font face=&quot;Verdana&quot;&gt;&lt;span style=&quot;&quot;&gt;Ticket Granting Server&lt;/span&gt;&lt;/font&gt;&lt;/h1&gt;" style="text;html=1;spacing=5;spacingTop=-20;whiteSpace=wrap;overflow=hidden;rounded=0;fontStyle=1" parent="1" vertex="1">
          <mxGeometry x="572.5" y="100" width="245" height="30" as="geometry" />
        </mxCell>
        <mxCell id="8QE09penSNkmXtspy4yx-14" value="&lt;h1 style=&quot;font-size: 18px;&quot;&gt;&lt;font face=&quot;Verdana&quot;&gt;&lt;span style=&quot;&quot;&gt;TGS&lt;/span&gt;&lt;/font&gt;&lt;/h1&gt;" style="text;html=1;spacing=5;spacingTop=-20;whiteSpace=wrap;overflow=hidden;rounded=0;fontStyle=1" parent="1" vertex="1">
          <mxGeometry x="670" y="295" width="50" height="30" as="geometry" />
        </mxCell>
        <mxCell id="8QE09penSNkmXtspy4yx-15" value="&lt;h1 style=&quot;font-size: 18px;&quot;&gt;&lt;font face=&quot;Verdana&quot;&gt;&lt;span style=&quot;&quot;&gt;AS&lt;/span&gt;&lt;/font&gt;&lt;/h1&gt;" style="text;html=1;spacing=5;spacingTop=-20;whiteSpace=wrap;overflow=hidden;rounded=0;fontStyle=1" parent="1" vertex="1">
          <mxGeometry x="367.5" y="295" width="35" height="30" as="geometry" />
        </mxCell>
        <mxCell id="8QE09penSNkmXtspy4yx-17" value="" style="image;html=1;image=img/lib/clip_art/telecommunication/iPhone_128x128.png" parent="1" vertex="1">
          <mxGeometry x="-10" y="240" width="80" height="80" as="geometry" />
        </mxCell>
        <mxCell id="8QE09penSNkmXtspy4yx-18" value="&lt;h1 style=&quot;font-size: 18px;&quot;&gt;&lt;font face=&quot;Verdana&quot;&gt;&lt;span style=&quot;&quot;&gt;Client&lt;/span&gt;&lt;/font&gt;&lt;/h1&gt;" style="text;html=1;spacing=5;spacingTop=-20;whiteSpace=wrap;overflow=hidden;rounded=0;fontStyle=1" parent="1" vertex="1">
          <mxGeometry x="70" y="295" width="70" height="30" as="geometry" />
        </mxCell>
        <mxCell id="8QE09penSNkmXtspy4yx-19" value="" style="image;html=1;image=img/lib/clip_art/computers/Server_128x128.png" parent="1" vertex="1">
          <mxGeometry x="910" y="170" width="150" height="150" as="geometry" />
        </mxCell>
        <mxCell id="8QE09penSNkmXtspy4yx-20" value="&lt;h1 style=&quot;font-size: 18px;&quot;&gt;&lt;font face=&quot;Verdana&quot;&gt;Chat Room&lt;/font&gt;&lt;/h1&gt;" style="text;html=1;spacing=5;spacingTop=-20;whiteSpace=wrap;overflow=hidden;rounded=0;fontStyle=1" parent="1" vertex="1">
          <mxGeometry x="925" y="295" width="120" height="30" as="geometry" />
        </mxCell>
        <mxCell id="8QE09penSNkmXtspy4yx-21" value="" style="endArrow=none;dashed=1;html=1;dashPattern=1 3;strokeWidth=2;rounded=0;" parent="1" edge="1">
          <mxGeometry width="50" height="50" relative="1" as="geometry">
            <mxPoint x="385" y="800" as="sourcePoint" />
            <mxPoint x="384.5" y="320" as="targetPoint" />
          </mxGeometry>
        </mxCell>
        <mxCell id="8QE09penSNkmXtspy4yx-22" value="" style="endArrow=none;dashed=1;html=1;dashPattern=1 3;strokeWidth=2;rounded=0;" parent="1" edge="1">
          <mxGeometry width="50" height="50" relative="1" as="geometry">
            <mxPoint x="695" y="800" as="sourcePoint" />
            <mxPoint x="694.5" y="320" as="targetPoint" />
          </mxGeometry>
        </mxCell>
        <mxCell id="8QE09penSNkmXtspy4yx-23" value="" style="endArrow=none;dashed=1;html=1;dashPattern=1 3;strokeWidth=2;rounded=0;" parent="1" source="8QE09penSNkmXtspy4yx-69" edge="1">
          <mxGeometry width="50" height="50" relative="1" as="geometry">
            <mxPoint x="990" y="800" as="sourcePoint" />
            <mxPoint x="990" y="325" as="targetPoint" />
          </mxGeometry>
        </mxCell>
        <mxCell id="8QE09penSNkmXtspy4yx-24" value="" style="endArrow=none;dashed=1;html=1;dashPattern=1 3;strokeWidth=2;rounded=0;" parent="1" source="8QE09penSNkmXtspy4yx-60" edge="1">
          <mxGeometry width="50" height="50" relative="1" as="geometry">
            <mxPoint x="100" y="800" as="sourcePoint" />
            <mxPoint x="99.5" y="325" as="targetPoint" />
          </mxGeometry>
        </mxCell>
        <mxCell id="8QE09penSNkmXtspy4yx-25" value="" style="endArrow=classic;html=1;rounded=0;" parent="1" edge="1">
          <mxGeometry width="50" height="50" relative="1" as="geometry">
            <mxPoint x="105" y="370" as="sourcePoint" />
            <mxPoint x="385" y="370" as="targetPoint" />
          </mxGeometry>
        </mxCell>
        <mxCell id="8QE09penSNkmXtspy4yx-27" value="&lt;h1 style=&quot;font-size: 12px;&quot;&gt;&lt;font face=&quot;Verdana&quot; style=&quot;font-size: 12px;&quot;&gt;&lt;span style=&quot;font-size: 12px;&quot;&gt;Register Request 1024&lt;/span&gt;&lt;/font&gt;&lt;/h1&gt;" style="text;html=1;spacing=5;spacingTop=-20;whiteSpace=wrap;overflow=hidden;rounded=0;fontSize=12;fontStyle=1;verticalAlign=middle;" parent="1" vertex="1">
          <mxGeometry x="150" y="350" width="170" height="30" as="geometry" />
        </mxCell>
        <mxCell id="8QE09penSNkmXtspy4yx-31" value="" style="endArrow=classic;html=1;rounded=0;" parent="1" edge="1">
          <mxGeometry width="50" height="50" relative="1" as="geometry">
            <mxPoint x="380" y="410" as="sourcePoint" />
            <mxPoint x="100" y="410" as="targetPoint" />
          </mxGeometry>
        </mxCell>
        <mxCell id="8QE09penSNkmXtspy4yx-32" value="&lt;h1 style=&quot;font-size: 12px;&quot;&gt;&lt;font face=&quot;Verdana&quot; style=&quot;font-size: 12px;&quot;&gt;&lt;span style=&quot;font-size: 12px;&quot;&gt;Register Response 1600 | 1601&lt;/span&gt;&lt;/font&gt;&lt;/h1&gt;" style="text;html=1;spacing=5;spacingTop=-20;whiteSpace=wrap;overflow=hidden;rounded=0;fontSize=12;fontStyle=1;verticalAlign=middle;" parent="1" vertex="1">
          <mxGeometry x="130" y="390" width="230" height="35" as="geometry" />
        </mxCell>
        <mxCell id="8QE09penSNkmXtspy4yx-34" value="" style="endArrow=classic;html=1;rounded=0;" parent="1" edge="1">
          <mxGeometry width="50" height="50" relative="1" as="geometry">
            <mxPoint x="100" y="480" as="sourcePoint" />
            <mxPoint x="690" y="480" as="targetPoint" />
          </mxGeometry>
        </mxCell>
        <mxCell id="8QE09penSNkmXtspy4yx-35" value="&lt;h1 style=&quot;font-size: 12px;&quot;&gt;&lt;font face=&quot;Verdana&quot; style=&quot;font-size: 12px;&quot;&gt;&lt;span style=&quot;font-size: 12px;&quot;&gt;Available Services Request 1026&lt;/span&gt;&lt;/font&gt;&lt;/h1&gt;" style="text;html=1;spacing=5;spacingTop=-20;whiteSpace=wrap;overflow=hidden;rounded=0;fontSize=12;fontStyle=1;verticalAlign=middle;" parent="1" vertex="1">
          <mxGeometry x="260" y="450" width="230" height="40" as="geometry" />
        </mxCell>
        <mxCell id="8QE09penSNkmXtspy4yx-37" value="" style="endArrow=classic;html=1;rounded=0;" parent="1" edge="1">
          <mxGeometry width="50" height="50" relative="1" as="geometry">
            <mxPoint x="690" y="520" as="sourcePoint" />
            <mxPoint x="100" y="520" as="targetPoint" />
          </mxGeometry>
        </mxCell>
        <mxCell id="8QE09penSNkmXtspy4yx-38" value="&lt;h1 style=&quot;font-size: 12px;&quot;&gt;&lt;font face=&quot;Verdana&quot; style=&quot;font-size: 12px;&quot;&gt;&lt;span style=&quot;font-size: 12px;&quot;&gt;Available Services Response 1602&lt;/span&gt;&lt;/font&gt;&lt;/h1&gt;" style="text;html=1;spacing=5;spacingTop=-20;whiteSpace=wrap;overflow=hidden;rounded=0;fontSize=12;fontStyle=1;verticalAlign=middle;" parent="1" vertex="1">
          <mxGeometry x="260" y="490" width="240" height="40" as="geometry" />
        </mxCell>
        <mxCell id="8QE09penSNkmXtspy4yx-41" value="" style="endArrow=classic;html=1;rounded=0;" parent="1" edge="1">
          <mxGeometry width="50" height="50" relative="1" as="geometry">
            <mxPoint x="100" y="570" as="sourcePoint" />
            <mxPoint x="690" y="570" as="targetPoint" />
          </mxGeometry>
        </mxCell>
        <mxCell id="8QE09penSNkmXtspy4yx-42" value="&lt;h1 style=&quot;font-size: 12px;&quot;&gt;&lt;font face=&quot;Verdana&quot; style=&quot;font-size: 12px;&quot;&gt;&lt;span style=&quot;font-size: 12px;&quot;&gt;Encrypted Key and Ticket Request 1027&lt;/span&gt;&lt;/font&gt;&lt;/h1&gt;" style="text;html=1;spacing=5;spacingTop=-20;whiteSpace=wrap;overflow=hidden;rounded=0;fontSize=12;fontStyle=1;verticalAlign=middle;" parent="1" vertex="1">
          <mxGeometry x="260" y="540" width="280" height="40" as="geometry" />
        </mxCell>
        <mxCell id="8QE09penSNkmXtspy4yx-43" value="&lt;h1 style=&quot;border-color: var(--border-color); font-size: 12px;&quot;&gt;&lt;font style=&quot;border-color: var(--border-color);&quot; face=&quot;Verdana&quot;&gt;Encrypted Key and Ticket Response 1603&lt;/font&gt;&lt;/h1&gt;" style="text;html=1;spacing=5;spacingTop=-20;whiteSpace=wrap;overflow=hidden;rounded=0;fontSize=12;fontStyle=1;verticalAlign=middle;" parent="1" vertex="1">
          <mxGeometry x="255" y="580" width="290" height="40" as="geometry" />
        </mxCell>
        <mxCell id="8QE09penSNkmXtspy4yx-44" value="" style="endArrow=classic;html=1;rounded=0;" parent="1" edge="1">
          <mxGeometry width="50" height="50" relative="1" as="geometry">
            <mxPoint x="695" y="610" as="sourcePoint" />
            <mxPoint x="100" y="610" as="targetPoint" />
          </mxGeometry>
        </mxCell>
        <mxCell id="8QE09penSNkmXtspy4yx-45" value="" style="endArrow=classic;html=1;rounded=0;" parent="1" edge="1">
          <mxGeometry width="50" height="50" relative="1" as="geometry">
            <mxPoint x="100" y="660" as="sourcePoint" />
            <mxPoint x="990" y="660" as="targetPoint" />
          </mxGeometry>
        </mxCell>
        <mxCell id="8QE09penSNkmXtspy4yx-46" value="&lt;h1 style=&quot;border-color: var(--border-color); font-size: 12px;&quot;&gt;&lt;font style=&quot;border-color: var(--border-color);&quot; face=&quot;Verdana&quot;&gt;Symmetric Key Request 1028&lt;/font&gt;&lt;/h1&gt;" style="text;html=1;spacing=5;spacingTop=-20;whiteSpace=wrap;overflow=hidden;rounded=0;fontSize=12;fontStyle=1;verticalAlign=middle;" parent="1" vertex="1">
          <mxGeometry x="430" y="630" width="380" height="40" as="geometry" />
        </mxCell>
        <mxCell id="8QE09penSNkmXtspy4yx-48" value="" style="endArrow=classic;html=1;rounded=0;" parent="1" edge="1">
          <mxGeometry width="50" height="50" relative="1" as="geometry">
            <mxPoint x="990" y="700" as="sourcePoint" />
            <mxPoint x="100" y="700" as="targetPoint" />
          </mxGeometry>
        </mxCell>
        <mxCell id="8QE09penSNkmXtspy4yx-49" value="&lt;h1 style=&quot;border-color: var(--border-color); font-size: 12px;&quot;&gt;&lt;font style=&quot;border-color: var(--border-color);&quot; face=&quot;Verdana&quot;&gt;Symmetric Key Response 1604&lt;/font&gt;&lt;/h1&gt;" style="text;html=1;spacing=5;spacingTop=-20;whiteSpace=wrap;overflow=hidden;rounded=0;fontSize=12;fontStyle=1;verticalAlign=middle;" parent="1" vertex="1">
          <mxGeometry x="430" y="670" width="380" height="40" as="geometry" />
        </mxCell>
        <mxCell id="8QE09penSNkmXtspy4yx-50" value="" style="endArrow=classic;html=1;rounded=0;" parent="1" edge="1">
          <mxGeometry width="50" height="50" relative="1" as="geometry">
            <mxPoint x="105" y="760" as="sourcePoint" />
            <mxPoint x="995" y="760" as="targetPoint" />
          </mxGeometry>
        </mxCell>
        <mxCell id="8QE09penSNkmXtspy4yx-51" value="&lt;h1 style=&quot;border-color: var(--border-color); font-size: 12px;&quot;&gt;&lt;font style=&quot;border-color: var(--border-color);&quot; face=&quot;Verdana&quot;&gt;Encrypted Message Request 1029&lt;/font&gt;&lt;/h1&gt;" style="text;html=1;spacing=5;spacingTop=-20;whiteSpace=wrap;overflow=hidden;rounded=0;fontSize=12;fontStyle=1;verticalAlign=middle;" parent="1" vertex="1">
          <mxGeometry x="430" y="730" width="380" height="40" as="geometry" />
        </mxCell>
        <mxCell id="8QE09penSNkmXtspy4yx-52" value="" style="endArrow=classic;html=1;rounded=0;" parent="1" edge="1">
          <mxGeometry width="50" height="50" relative="1" as="geometry">
            <mxPoint x="985" y="800" as="sourcePoint" />
            <mxPoint x="95" y="800" as="targetPoint" />
          </mxGeometry>
        </mxCell>
        <mxCell id="8QE09penSNkmXtspy4yx-53" value="&lt;h1 style=&quot;border-color: var(--border-color); font-size: 12px;&quot;&gt;&lt;font style=&quot;border-color: var(--border-color);&quot; face=&quot;Verdana&quot;&gt;Encrypted Message Response 1605&lt;/font&gt;&lt;/h1&gt;" style="text;html=1;spacing=5;spacingTop=-20;whiteSpace=wrap;overflow=hidden;rounded=0;fontSize=12;fontStyle=1;verticalAlign=middle;" parent="1" vertex="1">
          <mxGeometry x="430" y="770" width="380" height="40" as="geometry" />
        </mxCell>
        <mxCell id="8QE09penSNkmXtspy4yx-55" value="" style="endArrow=classic;html=1;rounded=0;" parent="1" edge="1">
          <mxGeometry width="50" height="50" relative="1" as="geometry">
            <mxPoint x="990" y="390" as="sourcePoint" />
            <mxPoint x="380" y="390" as="targetPoint" />
          </mxGeometry>
        </mxCell>
        <mxCell id="8QE09penSNkmXtspy4yx-56" value="&lt;h1 style=&quot;font-size: 12px;&quot;&gt;&lt;font face=&quot;Verdana&quot; style=&quot;font-size: 12px;&quot;&gt;&lt;span style=&quot;font-size: 12px;&quot;&gt;Register Request 1025&lt;/span&gt;&lt;/font&gt;&lt;/h1&gt;" style="text;html=1;spacing=5;spacingTop=-20;whiteSpace=wrap;overflow=hidden;rounded=0;fontSize=12;fontStyle=1;verticalAlign=middle;" parent="1" vertex="1">
          <mxGeometry x="585" y="368" width="170" height="35" as="geometry" />
        </mxCell>
        <mxCell id="8QE09penSNkmXtspy4yx-58" value="" style="endArrow=classic;html=1;rounded=0;" parent="1" edge="1">
          <mxGeometry width="50" height="50" relative="1" as="geometry">
            <mxPoint x="390" y="430" as="sourcePoint" />
            <mxPoint x="990" y="430" as="targetPoint" />
          </mxGeometry>
        </mxCell>
        <mxCell id="8QE09penSNkmXtspy4yx-59" value="&lt;h1 style=&quot;font-size: 12px;&quot;&gt;&lt;font face=&quot;Verdana&quot; style=&quot;font-size: 12px;&quot;&gt;&lt;span style=&quot;font-size: 12px;&quot;&gt;Register Response 1600 | 1601&lt;/span&gt;&lt;/font&gt;&lt;/h1&gt;" style="text;html=1;spacing=5;spacingTop=-20;whiteSpace=wrap;overflow=hidden;rounded=0;fontSize=12;fontStyle=1;verticalAlign=middle;" parent="1" vertex="1">
          <mxGeometry x="580" y="408" width="230" height="35" as="geometry" />
        </mxCell>
        <mxCell id="8QE09penSNkmXtspy4yx-61" value="" style="endArrow=none;dashed=1;html=1;dashPattern=1 3;strokeWidth=2;rounded=0;" parent="1" source="8QE09penSNkmXtspy4yx-62" target="8QE09penSNkmXtspy4yx-60" edge="1">
          <mxGeometry width="50" height="50" relative="1" as="geometry">
            <mxPoint x="100" y="800" as="sourcePoint" />
            <mxPoint x="99.5" y="325" as="targetPoint" />
          </mxGeometry>
        </mxCell>
        <mxCell id="8QE09penSNkmXtspy4yx-60" value="&lt;font style=&quot;font-size: 15px;&quot;&gt;1&lt;/font&gt;" style="ellipse;whiteSpace=wrap;html=1;fillColor=#dae8fc;strokeColor=#000000;fontStyle=1;strokeWidth=2;" parent="1" vertex="1">
          <mxGeometry x="80" y="368" width="40" height="40" as="geometry" />
        </mxCell>
        <mxCell id="8QE09penSNkmXtspy4yx-63" value="" style="endArrow=none;dashed=1;html=1;dashPattern=1 3;strokeWidth=2;rounded=0;" parent="1" source="8QE09penSNkmXtspy4yx-64" target="8QE09penSNkmXtspy4yx-62" edge="1">
          <mxGeometry width="50" height="50" relative="1" as="geometry">
            <mxPoint x="100" y="800" as="sourcePoint" />
            <mxPoint x="100" y="408" as="targetPoint" />
          </mxGeometry>
        </mxCell>
        <mxCell id="8QE09penSNkmXtspy4yx-62" value="&lt;font style=&quot;font-size: 15px;&quot;&gt;2&lt;/font&gt;" style="ellipse;whiteSpace=wrap;html=1;fillColor=#dae8fc;strokeColor=#000000;fontStyle=1;strokeWidth=2;" parent="1" vertex="1">
          <mxGeometry x="80" y="480" width="40" height="40" as="geometry" />
        </mxCell>
        <mxCell id="8QE09penSNkmXtspy4yx-65" value="" style="endArrow=none;dashed=1;html=1;dashPattern=1 3;strokeWidth=2;rounded=0;" parent="1" source="8QE09penSNkmXtspy4yx-66" target="8QE09penSNkmXtspy4yx-64" edge="1">
          <mxGeometry width="50" height="50" relative="1" as="geometry">
            <mxPoint x="100" y="800" as="sourcePoint" />
            <mxPoint x="100" y="520" as="targetPoint" />
          </mxGeometry>
        </mxCell>
        <mxCell id="8QE09penSNkmXtspy4yx-64" value="&lt;span style=&quot;font-size: 15px;&quot;&gt;3&lt;/span&gt;" style="ellipse;whiteSpace=wrap;html=1;fillColor=#dae8fc;strokeColor=#000000;fontStyle=1;strokeWidth=2;" parent="1" vertex="1">
          <mxGeometry x="80" y="570" width="40" height="40" as="geometry" />
        </mxCell>
        <mxCell id="8QE09penSNkmXtspy4yx-67" value="" style="endArrow=none;dashed=1;html=1;dashPattern=1 3;strokeWidth=2;rounded=0;" parent="1" target="8QE09penSNkmXtspy4yx-66" edge="1">
          <mxGeometry width="50" height="50" relative="1" as="geometry">
            <mxPoint x="100" y="800" as="sourcePoint" />
            <mxPoint x="100" y="610" as="targetPoint" />
          </mxGeometry>
        </mxCell>
        <mxCell id="8QE09penSNkmXtspy4yx-66" value="&lt;span style=&quot;font-size: 15px;&quot;&gt;4&lt;/span&gt;" style="ellipse;whiteSpace=wrap;html=1;fillColor=#dae8fc;strokeColor=#000000;fontStyle=1;strokeWidth=2;" parent="1" vertex="1">
          <mxGeometry x="80" y="660" width="40" height="40" as="geometry" />
        </mxCell>
        <mxCell id="8QE09penSNkmXtspy4yx-68" value="&lt;span style=&quot;font-size: 15px;&quot;&gt;5&lt;/span&gt;" style="ellipse;whiteSpace=wrap;html=1;fillColor=#dae8fc;strokeColor=#000000;fontStyle=1;strokeWidth=2;" parent="1" vertex="1">
          <mxGeometry x="80" y="760" width="40" height="40" as="geometry" />
        </mxCell>
        <mxCell id="8QE09penSNkmXtspy4yx-70" value="" style="endArrow=none;dashed=1;html=1;dashPattern=1 3;strokeWidth=2;rounded=0;" parent="1" source="8QE09penSNkmXtspy4yx-71" target="8QE09penSNkmXtspy4yx-69" edge="1">
          <mxGeometry width="50" height="50" relative="1" as="geometry">
            <mxPoint x="990" y="800" as="sourcePoint" />
            <mxPoint x="990" y="325" as="targetPoint" />
          </mxGeometry>
        </mxCell>
        <mxCell id="8QE09penSNkmXtspy4yx-69" value="&lt;font style=&quot;font-size: 15px;&quot;&gt;1&lt;/font&gt;" style="ellipse;whiteSpace=wrap;html=1;fillColor=#dae8fc;strokeColor=#000000;fontStyle=1;strokeWidth=2;" parent="1" vertex="1">
          <mxGeometry x="970" y="390" width="40" height="40" as="geometry" />
        </mxCell>
        <mxCell id="8QE09penSNkmXtspy4yx-72" value="" style="endArrow=none;dashed=1;html=1;dashPattern=1 3;strokeWidth=2;rounded=0;" parent="1" source="8QE09penSNkmXtspy4yx-73" target="8QE09penSNkmXtspy4yx-71" edge="1">
          <mxGeometry width="50" height="50" relative="1" as="geometry">
            <mxPoint x="990" y="800" as="sourcePoint" />
            <mxPoint x="990" y="430" as="targetPoint" />
          </mxGeometry>
        </mxCell>
        <mxCell id="8QE09penSNkmXtspy4yx-71" value="&lt;font style=&quot;font-size: 15px;&quot;&gt;2&lt;/font&gt;" style="ellipse;whiteSpace=wrap;html=1;fillColor=#dae8fc;strokeColor=#000000;fontStyle=1;strokeWidth=2;" parent="1" vertex="1">
          <mxGeometry x="970" y="660" width="40" height="40" as="geometry" />
        </mxCell>
        <mxCell id="8QE09penSNkmXtspy4yx-74" value="" style="endArrow=none;dashed=1;html=1;dashPattern=1 3;strokeWidth=2;rounded=0;" parent="1" target="8QE09penSNkmXtspy4yx-73" edge="1">
          <mxGeometry width="50" height="50" relative="1" as="geometry">
            <mxPoint x="990" y="800" as="sourcePoint" />
            <mxPoint x="986" y="700" as="targetPoint" />
          </mxGeometry>
        </mxCell>
        <mxCell id="8QE09penSNkmXtspy4yx-73" value="&lt;font style=&quot;font-size: 15px;&quot;&gt;3&lt;/font&gt;" style="ellipse;whiteSpace=wrap;html=1;fillColor=#dae8fc;strokeColor=#000000;fontStyle=1;strokeWidth=2;" parent="1" vertex="1">
          <mxGeometry x="970" y="760" width="40" height="40" as="geometry" />
        </mxCell>
      </root>
    </mxGraphModel>
  </diagram>
</mxfile>
